<svg width="58" height="41" viewBox="0 0 58 41" fill="none" xmlns="http://www.w3.org/2000/svg">
<path d="M11.655 11.6667C15.7762 11.6667 17.955 9.48792 19.5446 7.89542C20.9737 6.46625 21.6767 5.83333 23.3129 5.83333C24.9492 5.83333 25.6521 6.46625 27.0812 7.89542C28.6708 9.48792 30.8496 11.6667 34.9737 11.6667C39.1008 11.6667 41.2825 9.48792 42.8779 7.89542C44.31 6.46625 45.0129 5.83333 46.655 5.83333C48.2971 5.83333 49 6.46625 50.4321 7.89542C52.0246 9.48792 54.2062 11.6667 58.3333 11.6667V5.83333C56.6912 5.83333 55.9883 5.20042 54.5562 3.77125C52.9637 2.17875 50.7821 0 46.655 0C42.5279 0 40.3492 2.17875 38.7537 3.76833C37.3217 5.20042 36.6217 5.83333 34.9737 5.83333C33.3346 5.83333 32.6346 5.20042 31.2054 3.77125C29.6158 2.17875 27.4371 0 23.3129 0C19.1887 0 17.01 2.17875 15.4204 3.77125C13.9913 5.20042 13.2912 5.83333 11.655 5.83333C10.0187 5.83333 9.31875 5.20042 7.88958 3.77125C6.3 2.17875 4.12125 0 0 0V5.83333C1.63625 5.83333 2.33625 6.46625 3.76542 7.89542C5.355 9.48792 7.53375 11.6667 11.655 11.6667ZM11.655 26.25C15.7762 26.25 17.955 24.0712 19.5446 22.4787C20.9737 21.0496 21.6767 20.4167 23.3129 20.4167C24.9492 20.4167 25.6521 21.0496 27.0812 22.4787C28.6708 24.0712 30.8496 26.25 34.9737 26.25C39.1008 26.25 41.2825 24.0712 42.8779 22.4787C44.31 21.0496 45.0129 20.4167 46.655 20.4167C48.2971 20.4167 49 21.0496 50.4321 22.4787C52.0246 24.0712 54.2062 26.25 58.3333 26.25V20.4167C56.6912 20.4167 55.9883 19.7838 54.5562 18.3546C52.9637 16.7621 50.7821 14.5833 46.655 14.5833C42.5279 14.5833 40.3492 16.7621 38.7537 18.3517C37.3217 19.7837 36.6217 20.4167 34.9737 20.4167C33.3346 20.4167 32.6346 19.7838 31.2054 18.3546C29.6158 16.7621 27.4371 14.5833 23.3129 14.5833C19.1887 14.5833 17.01 16.7621 15.4204 18.3546C13.9913 19.7838 13.2912 20.4167 11.655 20.4167C10.0187 20.4167 9.31875 19.7838 7.88958 18.3546C6.3 16.7621 4.12125 14.5833 0 14.5833V20.4167C1.63625 20.4167 2.33625 21.0496 3.76542 22.4787C5.355 24.0712 7.53375 26.25 11.655 26.25ZM11.655 40.8333C15.7762 40.8333 17.955 38.6546 19.5446 37.0621C20.9737 35.6329 21.6767 35 23.3129 35C24.9492 35 25.6521 35.6329 27.0812 37.0621C28.6708 38.6546 30.8496 40.8333 34.9737 40.8333C39.1008 40.8333 41.2825 38.6546 42.8779 37.0621C44.31 35.6329 45.0129 35 46.655 35C48.2971 35 49 35.6329 50.4321 37.0621C52.0246 38.6546 54.2062 40.8333 58.3333 40.8333V35C56.6912 35 55.9883 34.3671 54.5562 32.9379C52.9637 31.3454 50.7821 29.1667 46.655 29.1667C42.5279 29.1667 40.3492 31.3454 38.7537 32.935C37.3217 34.3671 36.6217 35 34.9737 35C33.3346 35 32.6346 34.3671 31.2054 32.9379C29.6158 31.3454 27.4371 29.1667 23.3129 29.1667C19.1887 29.1667 17.01 31.3454 15.4204 32.9379C13.9913 34.3671 13.2912 35 11.655 35C10.0187 35 9.31875 34.3671 7.88958 32.9379C6.3 31.3454 4.12125 29.1667 0 29.1667V35C1.63625 35 2.33625 35.6329 3.76542 37.0621C5.355 38.6546 7.53375 40.8333 11.655 40.8333Z" fill="currentColor"/>
</svg>
