<svg width="70" height="70" viewBox="0 0 70 70" fill="none" xmlns="http://www.w3.org/2000/svg">
<g clip-path="url(#clip0_12_9309)">
<path d="M23.655 26.6667C27.7762 26.6667 29.955 24.4879 31.5446 22.8954C32.9737 21.4662 33.6767 20.8333 35.3129 20.8333C36.9492 20.8333 37.6521 21.4662 39.0812 22.8954C40.6708 24.4879 42.8496 26.6667 46.9737 26.6667C51.1008 26.6667 53.2825 24.4879 54.8779 22.8954C56.31 21.4662 57.0129 20.8333 58.655 20.8333C60.2971 20.8333 61 21.4662 62.4321 22.8954C64.0246 24.4879 66.2062 26.6667 70.3333 26.6667V20.8333C68.6912 20.8333 67.9883 20.2004 66.5562 18.7713C64.9637 17.1788 62.7821 15 58.655 15C54.5279 15 52.3492 17.1787 50.7537 18.7683C49.3217 20.2004 48.6217 20.8333 46.9737 20.8333C45.3346 20.8333 44.6346 20.2004 43.2054 18.7713C41.6158 17.1788 39.4371 15 35.3129 15C31.1887 15 29.01 17.1788 27.4204 18.7713C25.9913 20.2004 25.2912 20.8333 23.655 20.8333C22.0187 20.8333 21.3187 20.2004 19.8896 18.7713C18.3 17.1788 16.1212 15 12 15V20.8333C13.6362 20.8333 14.3362 21.4662 15.7654 22.8954C17.355 24.4879 19.5337 26.6667 23.655 26.6667ZM23.655 41.25C27.7762 41.25 29.955 39.0712 31.5446 37.4787C32.9737 36.0496 33.6767 35.4167 35.3129 35.4167C36.9492 35.4167 37.6521 36.0496 39.0812 37.4787C40.6708 39.0712 42.8496 41.25 46.9737 41.25C51.1008 41.25 53.2825 39.0712 54.8779 37.4787C56.31 36.0496 57.0129 35.4167 58.655 35.4167C60.2971 35.4167 61 36.0496 62.4321 37.4787C64.0246 39.0712 66.2062 41.25 70.3333 41.25V35.4167C68.6912 35.4167 67.9883 34.7838 66.5562 33.3546C64.9637 31.7621 62.7821 29.5833 58.655 29.5833C54.5279 29.5833 52.3492 31.7621 50.7537 33.3517C49.3217 34.7837 48.6217 35.4167 46.9737 35.4167C45.3346 35.4167 44.6346 34.7838 43.2054 33.3546C41.6158 31.7621 39.4371 29.5833 35.3129 29.5833C31.1887 29.5833 29.01 31.7621 27.4204 33.3546C25.9913 34.7838 25.2912 35.4167 23.655 35.4167C22.0187 35.4167 21.3187 34.7838 19.8896 33.3546C18.3 31.7621 16.1212 29.5833 12 29.5833V35.4167C13.6362 35.4167 14.3362 36.0496 15.7654 37.4787C17.355 39.0712 19.5337 41.25 23.655 41.25ZM23.655 55.8333C27.7762 55.8333 29.955 53.6546 31.5446 52.0621C32.9737 50.6329 33.6767 50 35.3129 50C36.9492 50 37.6521 50.6329 39.0812 52.0621C40.6708 53.6546 42.8496 55.8333 46.9737 55.8333C51.1008 55.8333 53.2825 53.6546 54.8779 52.0621C56.31 50.6329 57.0129 50 58.655 50C60.2971 50 61 50.6329 62.4321 52.0621C64.0246 53.6546 66.2062 55.8333 70.3333 55.8333V50C68.6912 50 67.9883 49.3671 66.5562 47.9379C64.9637 46.3454 62.7821 44.1667 58.655 44.1667C54.5279 44.1667 52.3492 46.3454 50.7537 47.935C49.3217 49.3671 48.6217 50 46.9737 50C45.3346 50 44.6346 49.3671 43.2054 47.9379C41.6158 46.3454 39.4371 44.1667 35.3129 44.1667C31.1887 44.1667 29.01 46.3454 27.4204 47.9379C25.9913 49.3671 25.2912 50 23.655 50C22.0187 50 21.3187 49.3671 19.8896 47.9379C18.3 46.3454 16.1212 44.1667 12 44.1667V50C13.6362 50 14.3362 50.6329 15.7654 52.0621C17.355 53.6546 19.5337 55.8333 23.655 55.8333Z" fill="currentColor"/>
</g>
<defs>
<clipPath id="clip0_12_9309">
<rect width="70" height="70" fill="currentColor"/>
</clipPath>
</defs>
</svg>
