<svg width="70" height="70" viewBox="0 0 70 70" fill="none" xmlns="http://www.w3.org/2000/svg">
<path d="M26.25 46.6667C26.3089 48.9482 27.2566 51.1165 28.8912 52.7093C30.5257 54.3022 32.7177 55.1936 35 55.1936C37.2823 55.1936 39.4743 54.3022 41.1088 52.7093C42.7434 51.1165 43.6911 48.9482 43.75 46.6667C43.75 45.6371 43.54 44.6658 43.2133 43.75H26.7867C26.441 44.684 26.2594 45.6708 26.25 46.6667Z" fill="currentColor"/>
<path d="M52.5 17.5V11.6667H43.2104C42.6113 9.96581 41.5006 8.49203 40.0305 7.44761C38.5605 6.40318 36.8033 5.83929 35 5.83334C30.1758 5.83334 26.25 9.75917 26.25 14.5833V31.5C23.5934 33.043 21.3875 35.2553 19.8523 37.9164C18.317 40.5775 17.506 43.5945 17.5 46.6667C17.5 56.3179 25.3488 64.1667 35 64.1667C44.6513 64.1667 52.5 56.3179 52.5 46.6667C52.494 43.5945 51.683 40.5775 50.1477 37.9164C48.6125 35.2553 46.4066 33.043 43.75 31.5V29.1667H52.5V23.3333H43.75V17.5H52.5ZM39.6521 35.945C41.7325 36.8629 43.5023 38.3641 44.7472 40.267C45.9922 42.1698 46.6589 44.3928 46.6667 46.6667C46.6667 53.1008 41.4342 58.3333 35 58.3333C28.5658 58.3333 23.3333 53.1008 23.3333 46.6667C23.3333 42.0438 26.0867 37.8379 30.3479 35.945L32.0833 35.1779V14.5833C32.0833 13.8098 32.3906 13.0679 32.9376 12.5209C33.4846 11.974 34.2265 11.6667 35 11.6667C35.7735 11.6667 36.5154 11.974 37.0624 12.5209C37.6094 13.0679 37.9167 13.8098 37.9167 14.5833V35.1779L39.6521 35.945Z" fill="currentColor"/>
</svg>
