<svg width="70" height="70" viewBox="0 0 70 70" fill="none" xmlns="http://www.w3.org/2000/svg">
<path d="M20.3963 35C20.3963 43.0529 26.9471 49.6037 35 49.6037C43.0529 49.6037 49.6038 43.0529 49.6038 35C49.6038 26.9471 43.0529 20.3963 35 20.3963C26.9471 20.3963 20.3963 26.9471 20.3963 35ZM35 26.2296C39.8358 26.2296 43.7704 30.1642 43.7704 35C43.7704 39.8358 39.8358 43.7704 35 43.7704C30.1642 43.7704 26.2296 39.8358 26.2296 35C26.2296 30.1642 30.1642 26.2296 35 26.2296ZM32.0775 55.4167H37.9108V64.1667H32.0775V55.4167ZM32.0775 5.83334H37.9108V14.5833H32.0775V5.83334ZM5.82751 32.0833H14.5775V37.9167H5.82751V32.0833ZM55.4108 32.0833H64.1608V37.9167H55.4108V32.0833ZM12.3054 53.5588L18.4888 47.3696L22.6158 51.4938L16.4325 57.6829L12.3054 53.5588ZM47.3667 18.5033L53.5558 12.3142L57.68 16.4383L51.4908 22.6275L47.3667 18.5033ZM18.4975 22.6304L12.3083 16.4413L16.4354 12.3171L22.6188 18.5063L18.4975 22.6304ZM57.68 53.5617L53.5558 57.6858L47.3667 51.4967L51.4908 47.3725L57.68 53.5617Z" fill="currentColor"/>
</svg>
